<svg width="40" height="40" viewBox="0 0 40 40" fill="none" xmlns="http://www.w3.org/2000/svg">
<circle cx="20" cy="20" r="20" fill="url(#paint0_linear_86_15694)"/>
<g filter="url(#filter0_ddi_86_15694)">
<path d="M25.5401 16.8526C25.4745 16.8526 25.4187 16.8395 25.3728 16.8133C25.3269 16.7871 25.2908 16.7412 25.2645 16.6757L24.6938 15.3389L23.2572 14.7097C23.1916 14.6835 23.1457 14.6475 23.1194 14.6016C23.0932 14.5557 23.0801 14.5 23.0801 14.4345C23.0801 14.369 23.0932 14.3133 23.1194 14.2674C23.1457 14.2215 23.1916 14.1855 23.2572 14.1593L24.6938 13.5498L25.2645 12.272C25.2908 12.2064 25.3269 12.1606 25.3728 12.1344C25.4187 12.1081 25.4745 12.095 25.5401 12.095C25.6057 12.095 25.6614 12.1081 25.7073 12.1344C25.7533 12.1606 25.7893 12.2064 25.8156 12.272L26.3863 13.5498L27.8229 14.1593C27.8885 14.1855 27.9345 14.2215 27.9607 14.2674C27.9869 14.3133 28 14.369 28 14.4345C28 14.5 27.9869 14.5557 27.9607 14.6016C27.9345 14.6475 27.8885 14.6835 27.8229 14.7097L26.3863 15.3389L25.8156 16.6757C25.7893 16.7412 25.7533 16.7871 25.7073 16.8133C25.6614 16.8395 25.6057 16.8526 25.5401 16.8526ZM25.5401 28.5697C25.4876 28.5697 25.4351 28.5566 25.3826 28.5304C25.3301 28.5042 25.2908 28.4583 25.2645 28.3928L24.6938 27.1149L23.2769 26.5055C23.2113 26.4793 23.1653 26.4432 23.1391 26.3973C23.1129 26.3515 23.0997 26.2958 23.0997 26.2302C23.0997 26.1647 23.1129 26.109 23.1391 26.0631C23.1653 26.0173 23.2113 25.9812 23.2769 25.955L24.6938 25.3456L25.2645 23.989C25.2908 23.9235 25.3269 23.8776 25.3728 23.8514C25.4187 23.8252 25.4745 23.8121 25.5401 23.8121C25.6057 23.8121 25.6614 23.8252 25.7073 23.8514C25.7533 23.8776 25.7893 23.9235 25.8156 23.989L26.3863 25.3456L27.8033 25.955C27.8689 25.9812 27.9148 26.0173 27.941 26.0631C27.9672 26.109 27.9804 26.1647 27.9804 26.2302C27.9804 26.2958 27.9672 26.3515 27.941 26.3973C27.9148 26.4432 27.8689 26.4793 27.8033 26.5055L26.3863 27.1149L25.8156 28.3928C25.7893 28.4583 25.75 28.5042 25.6975 28.5304C25.645 28.5566 25.5925 28.5697 25.5401 28.5697ZM16.9006 25.1686C16.7956 25.1686 16.6939 25.1391 16.5955 25.0802C16.4971 25.0212 16.4217 24.9393 16.3692 24.8344L15.09 22.1017L12.3348 20.8632C12.2298 20.8108 12.1478 20.7354 12.0888 20.6371C12.0298 20.5388 12.0002 20.4372 12.0002 20.3324C12.0002 20.2275 12.0298 20.1259 12.0888 20.0277C12.1478 19.9294 12.2298 19.854 12.3348 19.8016L15.09 18.563L16.3692 15.85C16.4217 15.732 16.4971 15.6436 16.5955 15.5846C16.6939 15.5256 16.7956 15.4961 16.9006 15.4961C17.0055 15.4961 17.1072 15.5256 17.2056 15.5846C17.304 15.6436 17.3794 15.7255 17.4319 15.8303L18.7308 18.563L21.4663 19.8016C21.5844 19.854 21.6729 19.9294 21.732 20.0277C21.791 20.1259 21.8205 20.2275 21.8205 20.3324C21.8205 20.4372 21.791 20.5388 21.732 20.6371C21.6729 20.7354 21.5844 20.8108 21.4663 20.8632L18.7308 22.1017L17.4319 24.8344C17.3794 24.9524 17.304 25.0376 17.2056 25.09C17.1072 25.1424 17.0055 25.1686 16.9006 25.1686Z" fill="white"/>
</g>
<defs>
<filter id="filter0_ddi_86_15694" x="5.63348" y="6.53326" width="28.0015" height="29.5741" filterUnits="userSpaceOnUse" color-interpolation-filters="sRGB">
<feFlood flood-opacity="0" result="BackgroundImageFix"/>
<feColorMatrix in="SourceAlpha" type="matrix" values="0 0 0 0 0 0 0 0 0 0 0 0 0 0 0 0 0 0 127 0" result="hardAlpha"/>
<feOffset dx="-1.31726" dy="2.48816"/>
<feGaussianBlur stdDeviation="2.52475"/>
<feComposite in2="hardAlpha" operator="out"/>
<feColorMatrix type="matrix" values="0 0 0 0 0.0506089 0 0 0 0 0.0159861 0 0 0 0 0.191833 0 0 0 0.25 0"/>
<feBlend mode="normal" in2="BackgroundImageFix" result="effect1_dropShadow_86_15694"/>
<feColorMatrix in="SourceAlpha" type="matrix" values="0 0 0 0 0 0 0 0 0 0 0 0 0 0 0 0 0 0 127 0" result="hardAlpha"/>
<feOffset dx="1.24408" dy="-1.1709"/>
<feGaussianBlur stdDeviation="2.19544"/>
<feComposite in2="hardAlpha" operator="out"/>
<feColorMatrix type="matrix" values="0 0 0 0 1 0 0 0 0 1 0 0 0 0 1 0 0 0 0.35 0"/>
<feBlend mode="normal" in2="effect1_dropShadow_86_15694" result="effect2_dropShadow_86_15694"/>
<feBlend mode="normal" in="SourceGraphic" in2="effect2_dropShadow_86_15694" result="shape"/>
<feColorMatrix in="SourceAlpha" type="matrix" values="0 0 0 0 0 0 0 0 0 0 0 0 0 0 0 0 0 0 127 0" result="hardAlpha"/>
<feOffset dy="3.07361"/>
<feGaussianBlur stdDeviation="1.9393"/>
<feComposite in2="hardAlpha" operator="arithmetic" k2="-1" k3="1"/>
<feColorMatrix type="matrix" values="0 0 0 0 1 0 0 0 0 1 0 0 0 0 1 0 0 0 1 0"/>
<feBlend mode="normal" in2="shape" result="effect3_innerShadow_86_15694"/>
</filter>
<linearGradient id="paint0_linear_86_15694" x1="23.8824" y1="33.1765" x2="32.3889" y2="2.42592" gradientUnits="userSpaceOnUse">
<stop stop-color="#2563EB"/>
<stop offset="0.927091" stop-color="#5F91FF"/>
</linearGradient>
</defs>
</svg>
