<svg width="1512" height="811" viewBox="0 0 1512 811" fill="none" xmlns="http://www.w3.org/2000/svg">
<g opacity="0.3">
<rect y="41.35" width="1512" height="1.05" fill="#9EAFC7"/>
<rect y="105.4" width="1512" height="1.05" fill="#9EAFC7"/>
<rect y="169.45" width="1512" height="1.05" fill="#9EAFC7"/>
<rect y="233.5" width="1512" height="1.05" fill="#9EAFC7"/>
<rect y="297.55" width="1512" height="1.05" fill="#9EAFC7"/>
<rect y="361.6" width="1512" height="1.05" fill="#9EAFC7"/>
<rect y="425.65" width="1512" height="1.05" fill="#9EAFC7"/>
<rect y="489.7" width="1512" height="1.05" fill="#9EAFC7"/>
<rect y="553.75" width="1512" height="1.05" fill="#9EAFC7"/>
<rect y="617.8" width="1512" height="1.05" fill="#9EAFC7"/>
<rect y="681.85" width="1512" height="1.05" fill="#9EAFC7"/>
<rect y="745.9" width="1512" height="1.05" fill="#9EAFC7"/>
<rect y="809.95" width="1512" height="1.05" fill="#9EAFC7"/>
<rect x="51.45" y="-50" width="1.05" height="861" fill="#9EAFC7"/>
<rect x="115.5" y="-50" width="1.05" height="861" fill="#9EAFC7"/>
<rect x="179.55" y="-50" width="1.05" height="861" fill="#9EAFC7"/>
<rect x="243.6" y="-50" width="1.05" height="861" fill="#9EAFC7"/>
<rect x="307.65" y="-50" width="1.05" height="861" fill="#9EAFC7"/>
<rect x="371.7" y="-50" width="1.05" height="861" fill="#9EAFC7"/>
<rect x="435.75" y="-50" width="1.05" height="861" fill="#9EAFC7"/>
<rect x="499.8" y="-50" width="1.05" height="861" fill="#9EAFC7"/>
<rect x="563.85" y="-50" width="1.05" height="861" fill="#9EAFC7"/>
<rect x="627.9" y="-50" width="1.05" height="861" fill="#9EAFC7"/>
<rect x="691.95" y="-50" width="1.05" height="861" fill="#9EAFC7"/>
<rect x="756" y="-50" width="1.05" height="861" fill="#9EAFC7"/>
<rect x="820.05" y="-50" width="1.05" height="861" fill="#9EAFC7"/>
<rect x="884.1" y="-50" width="1.05" height="861" fill="#9EAFC7"/>
<rect x="948.15" y="-50" width="1.05" height="861" fill="#9EAFC7"/>
<rect x="1012.2" y="-50" width="1.05" height="861" fill="#9EAFC7"/>
<rect x="1076.25" y="-50" width="1.05" height="861" fill="#9EAFC7"/>
<rect x="1140.3" y="-50" width="1.05" height="861" fill="#9EAFC7"/>
<rect x="1204.35" y="-50" width="1.05" height="861" fill="#9EAFC7"/>
<rect x="1268.4" y="-50" width="1.05" height="861" fill="#9EAFC7"/>
<rect x="1332.45" y="-50" width="1.05" height="861" fill="#9EAFC7"/>
<rect x="1396.5" y="-50" width="1.05" height="861" fill="#9EAFC7"/>
<rect x="1460.55" y="-50" width="1.05" height="861" fill="#9EAFC7"/>
</g>
<rect y="626" width="1440" height="185" fill="url(#paint0_linear_10_6254)"/>
<defs>
<linearGradient id="paint0_linear_10_6254" x1="0" y1="626" x2="0" y2="811" gradientUnits="userSpaceOnUse">
<stop stop-color="white" stop-opacity="0.01"/>
<stop offset="1" stop-color="white"/>
</linearGradient>
</defs>
</svg>
