<svg width="48" height="48" viewBox="0 0 48 48" fill="none" xmlns="http://www.w3.org/2000/svg">
<rect width="48" height="48" rx="8" fill="#2563EB"/>
<path d="M30.1666 16.1098L25.1766 14.2398C24.3466 13.9298 22.9866 13.9298 22.1566 14.2398L17.1666 16.1098C16.0166 16.5398 15.0766 17.8998 15.0766 19.1198V26.5498C15.0766 27.7298 15.8566 29.2798 16.8066 29.9898L21.1066 33.1998C22.5166 34.2598 24.8366 34.2598 26.2466 33.1998L30.5466 29.9898C31.4966 29.2798 32.2766 27.7298 32.2766 26.5498V19.1198C32.2566 17.8998 31.3166 16.5398 30.1666 16.1098ZM23.5966 19.0298C24.7766 19.0298 25.7366 19.9898 25.7366 21.1698C25.7366 22.3298 24.8266 23.2598 23.6766 23.2998H23.6566H23.6366C23.6166 23.2998 23.5966 23.2998 23.5766 23.2998C22.3766 23.2598 21.4766 22.3298 21.4766 21.1698C21.4666 19.9898 22.4266 19.0298 23.5966 19.0298ZM25.8566 28.3598C25.2466 28.7598 24.4566 28.9698 23.6666 28.9698C22.8766 28.9698 22.0766 28.7698 21.4766 28.3598C20.9066 27.9798 20.5966 27.4598 20.5866 26.8898C20.5866 26.3298 20.9066 25.7898 21.4766 25.4098C22.6866 24.6098 24.6566 24.6098 25.8666 25.4098C26.4366 25.7898 26.7566 26.3098 26.7566 26.8798C26.7466 27.4398 26.4266 27.9798 25.8566 28.3598Z" fill="white"/>
</svg>
