<svg width="48" height="48" viewBox="0 0 48 48" fill="none" xmlns="http://www.w3.org/2000/svg">
<rect width="48" height="48" rx="8" fill="#2563EB"/>
<path d="M30.67 14H28.77C26.59 14 25.44 15.15 25.44 17.33V19.23C25.44 21.41 26.59 22.56 28.77 22.56H30.67C32.85 22.56 34 21.41 34 19.23V17.33C34 15.15 32.85 14 30.67 14Z" fill="white"/>
<path d="M19.24 25.4302H17.34C15.15 25.4302 14 26.5802 14 28.7602V30.6602C14 32.8502 15.15 34.0002 17.33 34.0002H19.23C21.41 34.0002 22.56 32.8502 22.56 30.6702V28.7702C22.57 26.5802 21.42 25.4302 19.24 25.4302Z" fill="white"/>
<path d="M18.29 22.58C20.6593 22.58 22.58 20.6593 22.58 18.29C22.58 15.9207 20.6593 14 18.29 14C15.9207 14 14 15.9207 14 18.29C14 20.6593 15.9207 22.58 18.29 22.58Z" fill="white"/>
<path d="M29.71 33.9999C32.0793 33.9999 34 32.0792 34 29.7099C34 27.3406 32.0793 25.4199 29.71 25.4199C27.3407 25.4199 25.42 27.3406 25.42 29.7099C25.42 32.0792 27.3407 33.9999 29.71 33.9999Z" fill="white"/>
</svg>
