<svg width="48" height="48" viewBox="0 0 48 48" fill="none" xmlns="http://www.w3.org/2000/svg">
<rect width="48" height="48" rx="8" fill="#2563EB"/>
<path d="M21.5 31.5V30H16.5C15.95 30 15.45 29.78 15.09 29.41C14.72 29.05 14.5 28.55 14.5 28C14.5 26.97 15.3 26.11 16.31 26.01C16.37 26 16.43 26 16.5 26H31.5C31.57 26 31.63 26 31.69 26.01C32.17 26.05 32.59 26.26 32.91 26.59C33.32 26.99 33.54 27.56 33.49 28.18C33.4 29.23 32.45 30 31.39 30H26.5V31.5C26.5 32.88 25.38 34 24 34C22.62 34 21.5 32.88 21.5 31.5Z" fill="white"/>
<path d="M29.19 14H25.25C24.97 14 24.75 14.22 24.75 14.5V16C24.75 16.41 24.41 16.75 24 16.75C23.91 16.75 23.83 16.73 23.75 16.7C23.46 16.6 23.25 16.32 23.25 16V14.5C23.25 14.22 23.03 14 22.75 14H21.24C20.96 14 20.74 14.22 20.74 14.5V19C20.74 19.41 20.4 19.75 19.99 19.75C19.58 19.75 19.24 19.41 19.24 19V16.75V14.5C19.24 14.23 19.04 14.02 18.77 14H18.74C17 14.04 15.65 15.55 15.83 17.3L16.2 24.05C16.23 24.58 16.67 25 17.2 25H30.8C31.33 25 31.77 24.58 31.8 24.05L32.17 17.3C32.35 15.53 30.96 14 29.19 14Z" fill="white"/>
</svg>
