<svg width="48" height="48" viewBox="0 0 48 48" fill="none" xmlns="http://www.w3.org/2000/svg">
<rect width="48" height="48" rx="8" fill="#2563EB"/>
<path d="M24.3333 14C18.8133 14 14.3333 18.48 14.3333 24C14.3333 29.52 18.8133 34 24.3333 34C29.8533 34 34.3333 29.52 34.3333 24C34.3333 18.48 29.8533 14 24.3333 14ZM21.3333 20C21.8833 20 22.3333 20.45 22.3333 21C22.3333 21.55 21.8933 22 21.3333 22C20.7833 22 20.3333 21.55 20.3333 21C20.3333 20.45 20.7833 20 21.3333 20ZM21.8633 27.53C21.7133 27.68 21.5233 27.75 21.3333 27.75C21.1433 27.75 20.9533 27.68 20.8033 27.53C20.5133 27.24 20.5133 26.76 20.8033 26.47L26.8033 20.47C27.0933 20.18 27.5733 20.18 27.8633 20.47C28.1533 20.76 28.1533 21.24 27.8633 21.53L21.8633 27.53ZM27.3333 28C26.7733 28 26.3233 27.55 26.3233 27C26.3233 26.45 26.7733 26 27.3233 26C27.8733 26 28.3233 26.45 28.3233 27C28.3233 27.55 27.8833 28 27.3333 28Z" fill="white"/>
</svg>
