<svg width="48" height="48" viewBox="0 0 48 48" fill="none" xmlns="http://www.w3.org/2000/svg">
<rect width="48" height="48" rx="8" fill="#2563EB"/>
<path d="M30.33 17.67L18.59 29.41C18.15 29.85 17.41 29.79 17.05 29.27C15.81 27.46 15.08 25.32 15.08 23.12V18.73C15.08 17.91 15.7 16.98 16.46 16.67L22.03 14.39C23.29 13.87 24.69 13.87 25.95 14.39L30 16.04C30.66 16.31 30.83 17.17 30.33 17.67Z" fill="white"/>
<path d="M31.27 19.0401C31.92 18.4901 32.91 18.9601 32.91 19.8101V23.1201C32.91 28.0101 29.36 32.5901 24.51 33.9301C24.18 34.0201 23.82 34.0201 23.48 33.9301C22.06 33.5301 20.74 32.8601 19.61 31.9801C19.13 31.6101 19.08 30.9101 19.5 30.4801C21.68 28.2501 28.06 21.7501 31.27 19.0401Z" fill="white"/>
</svg>
