<svg width="48" height="48" viewBox="0 0 48 48" fill="none" xmlns="http://www.w3.org/2000/svg">
<rect width="48" height="48" rx="8" fill="#2563EB"/>
<path d="M28 20H20V28H28V20Z" fill="white"/>
<path d="M14 31C14 32.65 15.35 34 17 34C18.65 34 20 32.65 20 31V28H17C15.35 28 14 29.35 14 31Z" fill="white"/>
<path d="M17 14C15.35 14 14 15.35 14 17C14 18.65 15.35 20 17 20H20V17C20 15.35 18.65 14 17 14Z" fill="white"/>
<path d="M34 17C34 15.35 32.65 14 31 14C29.35 14 28 15.35 28 17V20H31C32.65 20 34 18.65 34 17Z" fill="white"/>
<path d="M31 28H28V31C28 32.65 29.35 34 31 34C32.65 34 34 32.65 34 31C34 29.35 32.65 28 31 28Z" fill="white"/>
</svg>
