<svg width="14" height="14" viewBox="0 0 14 14" fill="none" xmlns="http://www.w3.org/2000/svg">
<path d="M6.95879 14C5.0337 14 3.39262 13.318 2.03557 11.9541C0.678522 10.5902 0 8.94077 0 7.00591C0 5.07105 0.678522 3.41969 2.03557 2.05181C3.39262 0.683937 5.0337 0 6.95879 0C8.18606 0 9.26558 0.248604 10.1973 0.745813C11.1291 1.24304 11.933 1.93395 12.6091 2.81856V0.698946C12.6091 0.498611 12.6733 0.332032 12.8015 0.199211C12.9297 0.0664032 13.0974 0 13.3046 0C13.5039 0 13.6696 0.0664032 13.8018 0.199211C13.9339 0.332032 14 0.498611 14 0.698946V4.92544C14 5.16206 13.9194 5.3594 13.7582 5.51745C13.597 5.67551 13.3987 5.75455 13.1633 5.75455H8.94638C8.75038 5.75455 8.58744 5.68814 8.45756 5.55531C8.32767 5.42251 8.26272 5.25593 8.26272 5.05558C8.26272 4.85859 8.32879 4.69483 8.46093 4.56428C8.59308 4.43373 8.75882 4.36846 8.95814 4.36846H11.7145C11.179 3.56272 10.5171 2.91155 9.72862 2.41494C8.94017 1.91834 8.01689 1.67003 6.95879 1.67003C5.47679 1.67003 4.22146 2.18696 3.19281 3.22083C2.16416 4.2547 1.64984 5.51639 1.64984 7.00591C1.64984 8.49543 2.16416 9.75713 3.19281 10.791C4.22146 11.8249 5.47679 12.3418 6.95879 12.3418C7.93734 12.3418 8.85431 12.0898 9.70971 11.586C10.5651 11.0821 11.2189 10.3981 11.671 9.53416C11.7846 9.33995 11.9474 9.19888 12.1596 9.11094C12.3717 9.02298 12.5807 9.02572 12.7863 9.11916C13.002 9.20471 13.1494 9.34743 13.2285 9.54735C13.3076 9.74728 13.3006 9.94675 13.2077 10.1458C12.6269 11.3258 11.7759 12.2632 10.6546 12.958C9.5333 13.6527 8.30136 14 6.95879 14Z" fill="#373C43"/>
</svg>
