<svg width="233" height="240" viewBox="0 0 233 240" fill="none" xmlns="http://www.w3.org/2000/svg">
<path d="M13.7019 123.351C5.97115 123.351 -0.382711 129.641 0.542618 137.316C3.65212 163.108 15.3114 187.276 33.8697 205.834C55.7455 227.71 85.4156 240 116.353 240C147.29 240 176.96 227.71 198.836 205.834C217.394 187.276 229.053 163.108 232.163 137.316C233.088 129.641 226.734 123.351 219.004 123.351L13.7019 123.351Z" fill="#2563EB"/>
<path d="M116.353 34.6985C165.314 34.6985 205.006 74.3898 205.006 123.351C205.006 172.313 165.314 212.004 116.353 212.004C67.3911 212.004 27.6998 172.313 27.6998 123.351C27.6998 74.3898 67.3911 34.6985 116.353 34.6985Z" fill="url(#paint0_linear_84_13612)"/>
<path d="M88.357 111.686C88.357 110.398 87.3125 109.354 86.0241 109.354C84.7356 109.354 83.6911 110.398 83.6911 111.686V148.081C83.6911 149.369 84.7356 150.414 86.0241 150.414C87.3125 150.414 88.357 149.369 88.357 148.081L88.357 111.686Z" fill="white"/>
<path d="M88.357 159.279C88.357 157.991 87.3125 156.946 86.0241 156.946C84.7356 156.946 83.6911 157.991 83.6911 159.279V164.878C83.6911 166.167 84.7356 167.211 86.0241 167.211C87.3125 167.211 88.357 166.167 88.357 164.878L88.357 159.279Z" fill="white"/>
<path d="M146.681 112.153C147.97 112.153 149.014 113.198 149.014 114.486V142.482C149.014 143.77 147.97 144.815 146.681 144.815C145.393 144.815 144.348 143.77 144.348 142.482V114.486C144.348 113.198 145.393 112.153 146.681 112.153Z" fill="white"/>
<path d="M149.014 153.68C149.014 152.392 147.97 151.347 146.681 151.347C145.393 151.347 144.348 152.392 144.348 153.68V164.878C144.348 166.167 145.393 167.211 146.681 167.211C147.97 167.211 149.014 166.167 149.014 164.878V153.68Z" fill="white"/>
<path d="M116.353 123.351C117.641 123.351 118.686 124.396 118.686 125.684V159.279C118.686 160.568 117.641 161.612 116.353 161.612C115.064 161.612 114.02 160.568 114.02 159.279V125.684C114.02 124.396 115.064 123.351 116.353 123.351Z" fill="white"/>
<path d="M118.686 170.477C118.686 169.189 117.641 168.144 116.353 168.144C115.064 168.144 114.02 169.189 114.02 170.477V181.676C114.02 182.964 115.064 184.009 116.353 184.009C117.641 184.009 118.686 182.964 118.686 181.676V170.477Z" fill="white"/>
<path d="M46.3635 18.951C46.3635 16.3741 44.2637 14.2503 41.714 14.6239C39.1007 15.0067 36.5388 15.7116 34.0877 16.7269C30.1957 18.339 26.6595 20.7019 23.6807 23.6806C20.702 26.6594 18.3391 30.1957 16.727 34.0876C15.7117 36.5387 15.0067 39.1007 14.6239 41.7139C14.2504 44.2636 16.3742 46.3635 18.9511 46.3635L41.6976 46.3635C44.2745 46.3635 46.3635 44.2745 46.3635 41.6975V18.951Z" fill="url(#paint1_linear_84_13612)"/>
<path d="M31.7824 4.36999C31.7824 1.79306 29.6826 -0.330716 27.1329 0.0427953C24.5196 0.425615 21.9577 1.13058 19.5066 2.14587C15.6146 3.75796 12.0783 6.12083 9.09959 9.09959C6.12083 12.0783 3.75796 15.6146 2.14587 19.5066C1.13059 21.9577 0.425616 24.5196 0.0427953 27.1329C-0.330716 29.6826 1.79306 31.7824 4.36999 31.7824L27.1165 31.7824C29.6934 31.7824 31.7824 29.6934 31.7824 27.1165V4.36999Z" fill="url(#paint2_linear_84_13612)"/>
<path d="M65.0273 44.9275L116.315 74.5383V133.76L65.0273 104.149V44.9275Z" fill="#0E5CD3"/>
<path d="M116.353 133.76L167.64 104.149V44.9275L116.353 74.5383V133.76Z" fill="#0F65E6"/>
<path d="M116.353 15.3171L167.678 44.928L116.353 74.5388L65.0273 44.928L116.353 15.3171Z" fill="#3874F8"/>
<path d="M209.672 34.6985C209.672 30.8331 212.805 27.6996 216.671 27.6996C220.536 27.6996 223.669 30.8331 223.669 34.6985C223.669 38.5639 220.536 41.6974 216.671 41.6974C212.805 41.6974 209.672 38.5639 209.672 34.6985Z" fill="#2563EB"/>
<path d="M209.672 11.3688C209.672 7.5034 212.805 4.36987 216.671 4.36987C220.536 4.36987 223.669 7.5034 223.669 11.3688C223.669 15.2342 220.536 18.3677 216.671 18.3677C212.805 18.3677 209.672 15.2342 209.672 11.3688Z" fill="#2563EB"/>
<path d="M186.342 11.3688C186.342 7.5034 189.475 4.36987 193.341 4.36987C197.206 4.36987 200.34 7.5034 200.34 11.3688C200.34 15.2342 197.206 18.3677 193.341 18.3677C189.475 18.3677 186.342 15.2342 186.342 11.3688Z" fill="#2563EB"/>
<defs>
<linearGradient id="paint0_linear_84_13612" x1="116.353" y1="34.6985" x2="116.353" y2="212.004" gradientUnits="userSpaceOnUse">
<stop stop-color="#F3F8FF"/>
<stop offset="1" stop-color="#96C6FF"/>
</linearGradient>
<linearGradient id="paint1_linear_84_13612" x1="49.2798" y1="50.7379" x2="5.53658" y2="4.56444" gradientUnits="userSpaceOnUse">
<stop stop-color="#F3F8FF"/>
<stop offset="1" stop-color="#BFDCFF"/>
</linearGradient>
<linearGradient id="paint2_linear_84_13612" x1="34.6987" y1="36.1568" x2="-9.04454" y2="-10.0166" gradientUnits="userSpaceOnUse">
<stop stop-color="#F3F8FF"/>
<stop offset="1" stop-color="#BFDCFF"/>
</linearGradient>
</defs>
</svg>
