<svg width="239" height="239" viewBox="0 0 239 239" fill="none" xmlns="http://www.w3.org/2000/svg">
<path d="M52.1139 186.886C31.7184 149.206 37.4429 101.132 69.2877 69.2877C101.132 37.4429 149.206 31.7183 186.886 52.1139C182.416 43.8559 176.691 36.0972 169.712 29.118C130.888 -9.70599 67.942 -9.70599 29.118 29.118C-9.70599 67.9419 -9.70599 130.888 29.118 169.712C36.0972 176.691 43.8559 182.416 52.1139 186.886Z" fill="#2563EB"/>
<path d="M52.1139 186.885C89.7935 207.281 137.867 201.556 169.712 169.712C201.557 137.867 207.281 89.7931 186.886 52.1135C195.144 56.5835 202.903 62.3081 209.882 69.2873C248.706 108.111 248.706 171.057 209.882 209.881C171.058 248.705 108.112 248.705 69.2877 209.881C62.3085 202.902 56.5839 195.143 52.1139 186.885Z" fill="#2563EB"/>
<path d="M169.712 69.2877C142.08 41.6552 102.228 33.6898 67.5503 45.3915C62.8243 46.9862 58.2764 41.9661 61.36 38.0457C63.7931 34.9524 66.4356 31.9701 69.2878 29.118C108.112 -9.70599 171.058 -9.70599 209.882 29.118C228.222 47.4585 237.899 71.1823 238.911 95.2032C239.141 100.653 231.533 101.322 229.164 96.4078C224.439 86.6053 218.012 77.4176 209.882 69.2877C207.03 66.4355 204.047 63.7929 200.954 61.3599C197.034 58.2763 192.013 62.8229 193.608 67.5489C196.636 76.5211 198.347 85.8398 198.741 95.2037C198.971 100.654 191.363 101.322 188.995 96.4078C184.269 86.6053 177.842 77.4176 169.712 69.2877Z" fill="url(#paint0_linear_84_13588)"/>
<path d="M50.0052 142.592C47.6367 137.679 40.0287 138.346 40.2584 143.796C40.653 153.16 42.3641 162.479 45.3919 171.451C46.9867 176.177 41.9661 180.724 38.0457 177.64C34.9524 175.207 31.9701 172.564 29.118 169.712C20.988 161.582 14.5605 152.395 9.8355 142.592C7.46696 137.679 -0.14099 138.347 0.088677 143.797C1.10095 167.818 10.7774 191.542 29.118 209.882C67.9419 248.706 130.888 248.706 169.712 209.882C172.564 207.03 175.207 204.048 177.64 200.954C180.723 197.034 176.175 192.014 171.45 193.609C136.772 205.31 96.9202 197.345 69.2877 169.712C61.1577 161.582 54.7303 152.395 50.0052 142.592Z" fill="url(#paint1_linear_84_13588)"/>
<path d="M80.2604 218.208L62.7034 200.651" stroke="url(#paint2_linear_84_13588)" stroke-width="5.01627" stroke-linecap="round"/>
<path d="M102.834 218.208L85.2766 200.651" stroke="url(#paint3_linear_84_13588)" stroke-width="5.01627" stroke-linecap="round"/>
<circle cx="120.391" cy="120.39" r="32.6058" fill="url(#paint4_linear_84_13588)"/>
<path d="M218.208 122.899C218.208 125.669 215.962 127.915 213.192 127.915C210.421 127.915 208.175 125.669 208.175 122.899C208.175 120.128 210.421 117.882 213.192 117.882C215.962 117.882 218.208 120.128 218.208 122.899Z" fill="white"/>
<path d="M218.208 137.947C218.208 140.718 215.962 142.964 213.192 142.964C210.421 142.964 208.175 140.718 208.175 137.947C208.175 135.177 210.421 132.931 213.192 132.931C215.962 132.931 218.208 135.177 218.208 137.947Z" fill="white"/>
<path d="M213.192 158.013C215.962 158.013 218.208 155.767 218.208 152.996C218.208 150.226 215.962 147.98 213.192 147.98C210.421 147.98 208.175 150.226 208.175 152.996C208.175 155.767 210.421 158.013 213.192 158.013Z" fill="white"/>
<path d="M20.0651 115.374C20.0651 112.604 22.311 110.358 25.0814 110.358C27.8518 110.358 30.0976 112.604 30.0976 115.374C30.0976 118.145 27.8518 120.39 25.0814 120.39C22.311 120.39 20.0651 118.145 20.0651 115.374Z" fill="white"/>
<path d="M20.0651 100.325C20.0651 97.5549 22.311 95.3091 25.0814 95.3091C27.8518 95.3091 30.0976 97.5549 30.0976 100.325C30.0976 103.096 27.8518 105.342 25.0814 105.342C22.311 105.342 20.0651 103.096 20.0651 100.325Z" fill="white"/>
<path d="M25.0814 80.2603C22.311 80.2603 20.0651 82.5061 20.0651 85.2765C20.0651 88.0469 22.311 90.2928 25.0814 90.2928C27.8518 90.2928 30.0976 88.0469 30.0976 85.2765C30.0976 82.5061 27.8518 80.2603 25.0814 80.2603Z" fill="white"/>
<path d="M184.199 3.00976C186.495 -1.00326 192.234 -1.00325 194.529 3.00977L204.859 21.0683C207.155 25.0814 204.285 30.0976 199.694 30.0976H179.034C174.443 30.0976 171.574 25.0814 173.869 21.0683L184.199 3.00976Z" fill="url(#paint5_linear_84_13588)"/>
<defs>
<linearGradient id="paint0_linear_84_13588" x1="239" y1="59.7499" x2="52.1139" y2="59.7499" gradientUnits="userSpaceOnUse">
<stop stop-color="#EEF5FF"/>
<stop offset="1" stop-color="#97C7FF"/>
</linearGradient>
<linearGradient id="paint1_linear_84_13588" x1="186.886" y1="179.25" x2="-1.37139e-06" y2="179.25" gradientUnits="userSpaceOnUse">
<stop stop-color="#97C7FF"/>
<stop offset="1" stop-color="#EEF5FF"/>
</linearGradient>
<linearGradient id="paint2_linear_84_13588" x1="71.4819" y1="200.651" x2="71.4819" y2="218.208" gradientUnits="userSpaceOnUse">
<stop stop-color="#C5DEFF"/>
<stop offset="1" stop-color="#82BBFF"/>
</linearGradient>
<linearGradient id="paint3_linear_84_13588" x1="94.0551" y1="200.651" x2="94.0551" y2="218.208" gradientUnits="userSpaceOnUse">
<stop stop-color="#C5DEFF"/>
<stop offset="1" stop-color="#82BBFF"/>
</linearGradient>
<linearGradient id="paint4_linear_84_13588" x1="152.996" y1="87.7847" x2="93.8983" y2="146.883" gradientUnits="userSpaceOnUse">
<stop stop-color="#F3F8FF"/>
<stop offset="0.546875" stop-color="#B9D9FF"/>
<stop offset="1" stop-color="#96C6FF"/>
</linearGradient>
<linearGradient id="paint5_linear_84_13588" x1="199.397" y1="1.19094e-06" x2="173.061" y2="30.0976" gradientUnits="userSpaceOnUse">
<stop stop-color="#D8E9FF"/>
<stop offset="1" stop-color="#99C8FF"/>
</linearGradient>
</defs>
</svg>
