<svg width="48" height="48" viewBox="0 0 48 48" fill="none" xmlns="http://www.w3.org/2000/svg">
<rect width="48" height="48" rx="8" fill="#2563EB"/>
<path d="M28.19 14H19.81C16.17 14 14 16.17 14 19.81V28.18C14 31.83 16.17 34 19.81 34H28.18C31.82 34 33.99 31.83 33.99 28.19V19.81C34 16.17 31.83 14 28.19 14ZM21.06 28.25L18.5 25.68C18.06 25.24 17.85 24.8 17.86 24.35C17.87 23.93 18.09 23.52 18.5 23.11L22.1 19.51L21.54 18.96C21.35 18.77 21.35 18.47 21.54 18.28C21.73 18.09 22.03 18.09 22.22 18.28L22.77 18.83L27.47 23.53C27.57 23.63 27.64 23.78 27.64 23.92C27.65 24.09 27.6 24.26 27.47 24.39L23.62 28.24C22.78 29.1 21.92 29.1 21.06 28.25ZM28.64 29.86C27.81 29.86 27.14 29.19 27.14 28.36C27.14 27.52 28.13 26.41 28.33 26.19C28.49 26.01 28.8 26.01 28.97 26.19C29.17 26.4 30.16 27.52 30.16 28.36C30.14 29.19 29.47 29.86 28.64 29.86Z" fill="white"/>
</svg>
