<svg width="48" height="48" viewBox="0 0 48 48" fill="none" xmlns="http://www.w3.org/2000/svg">
<rect width="48" height="48" rx="8" fill="#2563EB"/>
<path d="M31 19C30.86 19 30.75 19.11 30.75 19.25V24C30.75 24.41 30.41 24.75 30 24.75C29.59 24.75 29.25 24.41 29.25 24V19.25C29.25 19.11 29.14 19 29 19H27C26.86 19 26.75 19.11 26.75 19.25V21.6C26.75 22.01 26.41 22.35 26 22.35C25.59 22.35 25.25 22.01 25.25 21.6V19.25C25.25 19.11 25.14 19 25 19H23.04C22.9 19 22.79 19.11 22.79 19.25L22.75 24.01C22.75 24.42 22.41 24.75 22 24.75C22 24.75 22 24.75 21.99 24.75C21.58 24.75 21.25 24.41 21.25 23.99L21.29 19.25C21.29 19.11 21.18 19 21.04 19H19C18.86 19 18.75 19.11 18.75 19.25V22.8C18.75 23.21 18.41 23.55 18 23.55C17.59 23.55 17.25 23.21 17.25 22.8V19.25C17.25 19.11 17.14 19 17 19C15.34 19 14 20.34 14 22V26C14 27.66 15.34 29 17 29H31C32.66 29 34 27.66 34 26V22C34 20.34 32.66 19 31 19Z" fill="white"/>
</svg>
